<svg xmlns="http://www.w3.org/2000/svg" xmlns:xlink="http://www.w3.org/1999/xlink" viewBox="0 0 43.24 43.93"><defs><style>.cls-1{fill:none;}.cls-2{clip-path:url(#clip-path);}.cls-3{fill:#ef0707;}</style><clipPath id="clip-path"><path class="cls-1" d="M22.69.78l4.55,14.14H42.12A1.11,1.11,0,0,1,43.24,16a1.16,1.16,0,0,1-.46.9h0l-12,8.72,4.62,14.14a1.1,1.1,0,0,1-.72,1.39,1.13,1.13,0,0,1-1.08-.2L21.63,32.25,9.61,41a1.11,1.11,0,0,1-1.55-.24,1.08,1.08,0,0,1-.16-1h0l4.64-14.14-12-8.72a1.11,1.11,0,0,1,.73-2l14.79,0L20.56.78A1.12,1.12,0,0,1,22,.05a1.15,1.15,0,0,1,.73.73Zm2.68,15.6L21.63,4.75,17.86,16.38h0a1.11,1.11,0,0,1-1.06.78l-12.22,0,9.9,7.16h0a1.13,1.13,0,0,1,.4,1.26L11.09,37.17,20.94,30a1.16,1.16,0,0,1,1.34,0l9.87,7.2L28.37,25.6a1.13,1.13,0,0,1,.38-1.3l9.92-7.16-12.19,0a1.11,1.11,0,0,1-1.11-.78Z"/></clipPath></defs><title>Recurso 2</title><g id="Capa_2" data-name="Capa 2"><g id="Capa_1-2" data-name="Capa 1"><g class="cls-2"><rect class="cls-3" width="43.24" height="43.93"/></g><polygon class="cls-3" points="22.28 29.97 20.94 29.98 11.09 37.17 14.88 25.56 14.48 24.3 4.58 17.14 16.8 17.16 17.86 16.38 21.63 4.75 25.37 16.38 26.48 17.16 38.67 17.14 28.37 25.6 32.15 37.17 22.28 29.97"/></g></g></svg>