<svg xmlns="http://www.w3.org/2000/svg" viewBox="0 0 483.3 367.8"><defs><style>.cls-1{fill:#fff;}</style></defs><title>Recurso 1</title><g id="Capa_2" data-name="Capa 2"><g id="Capa_1-2" data-name="Capa 1"><path class="cls-1" d="M424.3,0H59.1A59.15,59.15,0,0,0,0,59.1V308.7a59.15,59.15,0,0,0,59.1,59.1H424.2a59.15,59.15,0,0,0,59.1-59.1V59.2A59.09,59.09,0,0,0,424.3,0Zm32.1,308.7a32.14,32.14,0,0,1-32.1,32.1H59.1A32.14,32.14,0,0,1,27,308.7V59.2A32.14,32.14,0,0,1,59.1,27.1H424.2a32.14,32.14,0,0,1,32.1,32.1V308.7Z"/><path class="cls-1" d="M304.8,180.8,423,74.8a13.52,13.52,0,0,0-18.1-20.1L241.9,201l-31.8-28.4c-.1-.1-.2-.2-.2-.3a20,20,0,0,0-2.2-1.9L78.3,54.6a13.53,13.53,0,0,0-18,20.2L179.9,181.7,60.8,293.2a13.55,13.55,0,0,0-.6,19.1,13.81,13.81,0,0,0,9.9,4.3,13.53,13.53,0,0,0,9.2-3.6L200.2,199.9,233,229.2a13.46,13.46,0,0,0,18-.1l33.7-30.2L404.9,313.1a13.54,13.54,0,0,0,19.1-.5,13.55,13.55,0,0,0-.5-19.1Z"/></g></g></svg>