<svg width="580" height="400" xmlns="http://www.w3.org/2000/svg">
 <!-- Created with Method Draw - http://github.com/duopixel/Method-Draw/ -->

 <g>
  <title>background</title>
  <rect fill="#fff" id="canvas_background" height="402" width="582" y="-1" x="-1"/>
  <g display="none" overflow="visible" y="0" x="0" height="100%" width="100%" id="canvasGrid">
   <rect fill="url(#gridpattern)" stroke-width="0" y="0" x="0" height="100%" width="100%"/>
  </g>
 </g>
 <g>
  <title>Layer 1</title>
  <g fill="#ed1c24" id="svg_24">
   <g transform="matrix(0.279525, 0, 0, 0.279525, 0, 0)" id="svg_5">
    <g id="svg_6">
     <path fill="#ed1c24" id="svg_7" d="m1037.369751,477.001984c-105.399963,0 -191.199951,85.800018 -191.199951,191.199982c0,12 1.099976,24.100037 3.399963,35.900024c0.100037,0.700012 0.5,2.799988 1.300049,6.399963c2.899963,12.900024 7.199951,25.600037 12.799988,37.700073c20.599976,48.5 65.900024,123 165.299927,202.799927c2.5,2 5.5,3 8.5,3s6,-1 8.5,-3c99.300049,-79.799927 144.700073,-154.299927 165.300049,-202.799927c5.600098,-12.100037 9.900024,-24.700073 12.800049,-37.700073c0.800049,-3.599976 1.199951,-5.699951 1.300049,-6.399963c2.199951,-11.799988 3.399902,-23.900024 3.399902,-35.900024c-0.199951,-105.399963 -86,-191.199982 -191.400024,-191.199982zm161.200073,222.399994c0,0.200012 -0.100098,0.400024 -0.100098,0.599976c-0.099854,0.5 -0.399902,2 -0.899902,4.300049c0,0.099976 0,0.099976 0,0.199951c-2.5,11.200012 -6.199951,22.100037 -11.100098,32.599976c-0.099854,0.100037 -0.099854,0.300049 -0.199951,0.400024c-18.699951,44.300049 -59.699951,111.900024 -148.900024,185.600037c-89.199951,-73.700012 -130.199951,-141.299988 -148.899963,-185.600037c-0.099976,-0.099976 -0.099976,-0.299988 -0.200012,-0.400024c-4.799988,-10.399963 -8.5,-21.399963 -11.099976,-32.599976c0,-0.099976 0,-0.099976 0,-0.199951c-0.599976,-2.300049 -0.799988,-3.800049 -0.900024,-4.300049c0,-0.199951 -0.099976,-0.399963 -0.099976,-0.699951c-2,-10.300049 -3,-20.700012 -3,-31.200012c0,-90.5 73.700012,-164.200012 164.199951,-164.200012s164.200073,73.700012 164.200073,164.200012c0,10.599976 -1,21.099976 -3,31.299988z"/>
     <path fill="#ed1c24" id="svg_8" d="m1037.369751,548.901978c-66.899963,0 -121.399963,54.5 -121.399963,121.400024s54.5,121.400024 121.399963,121.400024s121.400024,-54.5 121.400024,-121.400024s-54.5,-121.400024 -121.400024,-121.400024zm0,215.800049c-52.099976,0 -94.399963,-42.400024 -94.399963,-94.400024s42.399963,-94.400024 94.399963,-94.400024s94.400024,42.400024 94.400024,94.400024s-42.300049,94.400024 -94.400024,94.400024z"/>
    </g>
   </g>
   <g transform="matrix(0.279525, 0, 0, 0.279525, 0, 0)" id="svg_9"/>
   <g transform="matrix(0.279525, 0, 0, 0.279525, 0, 0)" id="svg_10"/>
   <g transform="matrix(0.279525, 0, 0, 0.279525, 0, 0)" id="svg_11"/>
   <g transform="matrix(0.279525, 0, 0, 0.279525, 0, 0)" id="svg_12"/>
   <g transform="matrix(0.279525, 0, 0, 0.279525, 0, 0)" id="svg_13"/>
   <g transform="matrix(0.279525, 0, 0, 0.279525, 0, 0)" id="svg_14"/>
   <g transform="matrix(0.279525, 0, 0, 0.279525, 0, 0)" id="svg_15"/>
   <g transform="matrix(0.279525, 0, 0, 0.279525, 0, 0)" id="svg_16"/>
   <g transform="matrix(0.279525, 0, 0, 0.279525, 0, 0)" id="svg_17"/>
   <g transform="matrix(0.279525, 0, 0, 0.279525, 0, 0)" id="svg_18"/>
   <g transform="matrix(0.279525, 0, 0, 0.279525, 0, 0)" id="svg_19"/>
   <g transform="matrix(0.279525, 0, 0, 0.279525, 0, 0)" id="svg_20"/>
   <g transform="matrix(0.279525, 0, 0, 0.279525, 0, 0)" id="svg_21"/>
   <g transform="matrix(0.279525, 0, 0, 0.279525, 0, 0)" id="svg_22"/>
   <g transform="matrix(0.279525, 0, 0, 0.279525, 0, 0)" id="svg_23"/>
  </g>
 </g>
</svg>